<svg width="25" height="25" viewBox="0 0 25 25" fill="none" xmlns="http://www.w3.org/2000/svg">
<g clip-path="url(#clip0_185_150)">
<path d="M24.7236 11.3056C22.9306 8.69376 19.2236 12.5375 12.4583 13.3188C9.95348 13.6076 7.69653 15.6993 4.78681 15.5C3.59376 15.4181 1.92778 11.9854 0.680561 12.5326C0.038894 12.8146 -0.25555 13.7556 0.404172 14.4625L7.72917 23.2028C7.72917 23.2028 8.10139 23.632 9.35556 23.3347C9.66459 23.4257 14.3104 21.5639 16.9965 17.8368C17.6396 16.9445 18.4063 16.2014 19.2 15.5806C21.7771 13.675 24.5785 13.0111 24.5785 13.0111C24.9368 12.7153 25.0208 12.4007 25.0014 12.1278C25.025 11.6722 24.7236 11.3056 24.7236 11.3056Z" fill="#5C913B"/>
<path d="M7.96945 7.13468C5.34237 10.7805 0.741672 12.5076 0.741672 12.5076C-0.116661 13.2347 0.608339 14.0916 0.608339 14.0916L7.85695 22.6743C7.85695 22.6743 8.21945 23.1027 9.44028 22.8055C9.44028 22.8055 14.041 21.0819 16.6674 17.4361C19.375 13.6791 24.2576 12.493 24.2576 12.493C25.1153 11.7659 24.391 10.9076 24.391 10.9076L17.1424 2.32635C17.1424 2.32635 16.7799 1.89718 15.559 2.19301C15.559 2.19301 10.6771 3.37635 7.96945 7.13468Z" fill="#A7D28B"/>
<path d="M15.2778 13.5417C17.3872 13.5417 19.0972 11.8317 19.0972 9.72228C19.0972 7.61286 17.3872 5.90283 15.2778 5.90283C13.1683 5.90283 11.4583 7.61286 11.4583 9.72228C11.4583 11.8317 13.1683 13.5417 15.2778 13.5417Z" fill="#77B255"/>
<path d="M8.93956 22.173C8.32775 22.173 8.10344 21.9452 8.07289 21.9105L1.53886 14.2834C1.52636 14.2688 1.19511 13.8896 1.23539 13.4077C1.25969 13.1153 1.41108 12.8549 1.68469 12.6334L1.72844 12.607C1.77081 12.5903 6.00831 10.8487 8.38331 7.70073C10.8958 4.37018 15.2298 2.94101 15.2729 2.92712C16.4847 2.64518 16.8812 3.04796 16.9236 3.09518L23.3715 10.7646C23.3833 10.7771 23.7139 11.1577 23.6736 11.6403C23.6493 11.932 23.4979 12.1924 23.2243 12.4139L23.1555 12.448C23.1132 12.4584 18.8993 13.5056 16.4583 16.7403C14.0284 19.9625 9.78678 22.0473 9.74442 22.0674C9.42219 22.1438 9.15692 22.173 8.93956 22.173ZM8.33469 21.682C8.33539 21.682 8.64858 21.9709 9.62983 21.7431C9.63539 21.7355 13.8027 19.6862 16.1826 16.532C18.5694 13.3688 22.5889 12.2389 23.0347 12.1216C23.2132 11.9681 23.3118 11.798 23.3277 11.6153C23.3569 11.282 23.1111 10.9952 23.109 10.9924L16.6611 3.32226C16.6597 3.32226 16.3486 3.03407 15.3666 3.26185C15.3382 3.27157 11.1062 4.66879 8.66108 7.90976C6.32358 11.0077 2.24511 12.7674 1.88469 12.9188C1.69858 13.075 1.59719 13.2493 1.58122 13.4362C1.55344 13.7667 1.79789 14.0521 1.79997 14.0549L8.33469 21.682Z" fill="#5C913B"/>
<path d="M14.775 15.393L14.7708 19.518L15.116 19.9277C15.7889 19.3139 16.4354 18.6236 16.9944 17.8472C17.5562 17.0736 18.2164 16.3765 18.9583 15.7736L18.6229 15.3743L14.775 15.393Z" fill="#FFAC33"/>
<path d="M18.6097 15.3597L9.92501 5.07288C9.21945 5.65343 8.54167 6.33052 7.96528 7.13121C7.40209 7.91315 6.74653 8.60135 6.06598 9.20829L7.08126 10.4104L7.08056 10.4111L14.7715 19.518C15.476 18.8935 16.1105 18.1942 16.6639 17.4326C17.2403 16.6326 17.9174 15.9562 18.6222 15.3757L18.6097 15.3597Z" fill="#FFE8B6"/>
<path d="M10.0549 15.6632C8.97363 14.3826 6.68474 16.4604 6.03196 15.6875C5.71599 15.3132 5.91946 14.8278 6.33474 14.4778C7.03265 13.8875 7.53613 14.2312 7.8521 13.9639C8.0764 13.775 8.0646 13.5437 7.93127 13.3847C7.62154 13.0187 6.82988 13.2097 6.2146 13.5653L5.91529 13.2111C5.82437 13.1099 5.69762 13.048 5.56188 13.0386C5.42614 13.0292 5.29207 13.073 5.18808 13.1608C5.08408 13.2485 5.01833 13.3733 5.00474 13.5087C4.99116 13.6441 5.03081 13.7794 5.11529 13.8861L5.42502 14.2534C4.95488 14.8771 4.79515 15.7048 5.3514 16.3625C6.39029 17.5916 8.70765 15.5486 9.43682 16.4125C9.6896 16.7125 9.61877 17.2847 9.08682 17.7333C8.2896 18.4076 7.56738 18.0916 7.24307 18.3653C7.08474 18.4979 7.05627 18.7507 7.22502 18.9514C7.49377 19.2687 8.35002 19.2007 9.17293 18.6882C9.17432 18.6896 9.17432 18.6909 9.17432 18.6923L9.51252 19.0923C9.55618 19.1473 9.61043 19.1929 9.67204 19.2264C9.73365 19.26 9.80137 19.2809 9.87119 19.2878C9.94101 19.2947 10.0115 19.2876 10.0785 19.2667C10.1455 19.2459 10.2077 19.2119 10.2613 19.1666C10.3149 19.1213 10.3588 19.0657 10.3906 19.0031C10.4223 18.9406 10.4411 18.8722 10.446 18.8022C10.4508 18.7322 10.4416 18.662 10.4188 18.5956C10.396 18.5293 10.3601 18.4682 10.3132 18.4159L9.97502 18.0159C9.97154 18.0118 9.96599 18.009 9.96182 18.0048C10.5167 17.3257 10.7042 16.4305 10.0549 15.6632Z" fill="#5C913B"/>
<path d="M22.5389 22.6305C22.5451 22.6249 22.5521 22.6208 22.5583 22.6159C22.6055 22.5687 22.6423 22.5145 22.684 22.4624C22.7132 22.4263 22.7458 22.3916 22.7729 22.3548C22.7972 22.3201 22.8173 22.2847 22.8396 22.2492C23.8257 20.7305 23.1798 18.1555 21.2278 16.2027C19.275 14.2499 16.6993 13.6041 15.1812 14.5909C15.1451 14.6124 15.1097 14.6326 15.075 14.6576C15.0382 14.6847 15.0028 14.7173 14.968 14.7458C14.9167 14.7881 14.8625 14.8242 14.8146 14.8722C14.8083 14.8784 14.8042 14.8854 14.7993 14.8916C14.7917 14.8992 14.7826 14.9041 14.7743 14.9124L14.7785 14.9159C14.084 15.6534 14.0757 16.7944 14.7743 17.4937C15.4743 18.1937 16.6146 18.184 17.3528 17.4895L17.3604 17.4979C17.3458 17.5117 17.3298 17.5208 17.316 17.5347C16.5805 18.2701 16.5632 19.443 17.275 20.1562C17.9875 20.868 19.1618 20.8506 19.8965 20.1152C19.9104 20.1013 19.9194 20.0854 19.9333 20.0708L19.941 20.0791C19.2465 20.8166 19.2375 21.9576 19.9375 22.6576C20.6368 23.3562 21.7771 23.3479 22.5146 22.6534L22.5187 22.6576C22.5257 22.6479 22.5312 22.6388 22.5389 22.6305Z" fill="#E1E8ED"/>
<path d="M14.7757 17.5215C15.4049 18.1499 16.3875 18.2013 17.116 17.7027C17.4209 17.1819 17.5084 16.6867 17.5084 16.5319C15.9757 17.6749 14.6077 16.5381 14.3014 15.8583C14.1743 16.4458 14.3285 17.0736 14.7757 17.5215ZM19.8445 20.1881C20.0514 19.8972 20.2118 19.6159 20.2868 19.4256C19.3111 20.3201 17.4459 19.6652 16.8806 18.2465C16.632 18.9062 16.7591 19.6659 17.2771 20.184C17.9729 20.8798 19.1063 20.8742 19.8445 20.1881ZM22.5209 22.6847L22.541 22.6597C22.5479 22.6541 22.5549 22.6499 22.5604 22.6444C22.6084 22.5972 22.6452 22.543 22.6861 22.4916C22.716 22.4548 22.7479 22.4208 22.775 22.3833C22.8 22.3492 22.8202 22.3131 22.8424 22.2777C22.8875 22.2083 22.9118 22.1263 22.95 22.0527C21.1945 22.8381 19.8841 21.5055 19.5167 20.8409C19.3118 21.4777 19.4452 22.1909 19.9396 22.6861C20.6382 23.3854 21.7785 23.377 22.5167 22.6819L22.5209 22.6847Z" fill="#CCD6DD"/>
<path d="M9.69166 8.67911L9.71111 8.66383C9.75903 8.61661 9.79583 8.56244 9.8368 8.51105C9.86597 8.47494 9.89791 8.44092 9.925 8.40342C9.95 8.36869 9.97014 8.33328 9.99236 8.29786C10.9785 6.77911 10.3319 4.20342 8.37986 2.25133C6.42708 0.298554 3.85208 -0.347974 2.33333 0.638137C2.29791 0.66036 2.2618 0.680498 2.22708 0.705498C2.18958 0.732582 2.15555 0.764526 2.11944 0.793693C2.06805 0.83536 2.01389 0.871471 1.96666 0.919387C1.96041 0.925637 1.95625 0.933276 1.95139 0.938832C1.94375 0.945776 1.93402 0.952026 1.92639 0.959665L1.92986 0.963137C1.23541 1.70064 1.22708 2.84161 1.92639 3.54092C2.62569 4.24022 3.76666 4.23189 4.50416 3.53744L4.5118 3.54508C4.49722 3.55828 4.48125 3.568 4.46736 3.58189C3.73194 4.3173 3.71458 5.49022 4.42708 6.20342C5.13958 6.91661 6.31319 6.89855 7.04861 6.16314C7.0625 6.14925 7.07153 6.13328 7.08541 6.11869L7.09305 6.12633C6.39861 6.86383 6.38958 8.00481 7.08958 8.70411C7.78889 9.40342 8.92916 9.39508 9.66666 8.69994L9.67014 8.70411C9.67778 8.69647 9.68403 8.68744 9.69166 8.67911Z" fill="#E1E8ED"/>
<path d="M1.92568 3.54166C2.55485 4.17083 3.53749 4.22221 4.26596 3.72221C4.57082 3.20138 4.65763 2.70694 4.65763 2.55208C3.12568 3.69444 1.75693 2.55694 1.45138 1.87708C1.3243 2.46527 1.47846 3.09374 1.92568 3.54166ZM6.99582 6.20694C7.20207 5.91596 7.36249 5.6361 7.4368 5.44583C6.46041 6.34027 4.59513 5.68471 4.03055 4.26596C3.78193 4.92569 3.90902 5.68541 4.42638 6.20346C5.1236 6.89999 6.25763 6.89374 6.99582 6.20694ZM9.67013 8.70485C9.67777 8.69721 9.68402 8.68819 9.69096 8.67985L9.71041 8.66458C9.75832 8.61735 9.79513 8.56319 9.8361 8.5118C9.86527 8.47569 9.89721 8.44166 9.9243 8.40416C9.9493 8.36944 9.96943 8.33402 9.99166 8.2986C10.0368 8.22916 10.0611 8.14652 10.0993 8.07291C8.34374 8.85833 7.03332 7.52638 6.66596 6.8618C6.4611 7.4986 6.59443 8.2118 7.08888 8.70624C7.78818 9.40555 8.92846 9.39721 9.66596 8.70208L9.67013 8.70485Z" fill="#CCD6DD"/>
</g>
<defs>
<clipPath id="clip0_185_150">
<rect width="25" height="25" fill="white"/>
</clipPath>
</defs>
</svg>
